Patient4_TMGait_0pt4_02_right_07_EMG.mot
version=1
nRows=16
nColumns=33
inDegrees=no
endheader
time	1LAddLong	2LGlutMax	3LGlutMed	4LIliopsoas	5LSemiMemb	6LBicFemLong	7LRecFem	8LVastMed	9LVastLat	10LGasMed	11LTibAnt	12lTibPost	13LPeroneusLong	14LSol	15LExtDigLong	16LFlexDigLong	17RAddLong	18RGlutMax	19RGlutMed	20RIliopsoas	21RSemiMemb	22RBicFemLong	23RRecFem	24RVastMed	25RVastLat	26RGasMed	27RTibAnt	28RTibPost	29RPeroneusLong	30RSol	31RExtDigLong	32RFlexDigLong
8.74	0.010834	0.13657	-0.003357	0.002289	0.014496	-0.055695	-0.024414	0.009308	-0.002747	-0.21469	0.012207	-0.13123	-0.081177	-0.18478	0.000458	-0.34164	0.017395	-0.080109	0.083771	0.32379	0.035858	-0.082245	0.19302	0.042267	0.017395	0.002747	0.024567	-0.000458	-0.22949	-0.021057	-0.005035	-0.002899
8.741	0	0.12665	-0.070038	0.007019	0.012512	-0.04364	0.017853	0.005798	-0.02655	-0.16098	0.016174	-0.028534	-0.088196	-0.69168	-0.004578	0.26199	0.00061	-0.070496	0.050201	0.16251	0.0354	-0.10651	0.14114	0.021515	0.013733	0.001984	0.086365	-0.000458	-0.42954	0.025787	-0.003357	0.000305
8.742	0.002441	0.15625	-0.085449	0.014954	0.008545	-0.01297	0.031433	0.009155	-0.032043	-0.14252	0.005646	0.023041	-0.043488	-0.5426	-0.009766	0.062561	0.019073	-0.021057	0.41092	0.04776	0.042114	-0.075531	0.13992	0.002899	0.004883	-0.000153	0.11856	-0.000153	0.24735	0.036316	-0.007019	0.001068
8.743	0.012207	0.17258	-0.020752	0	-0.00412	-0.01358	0.0383	0.020142	-0.017548	-0.099182	0.01297	-0.011902	-0.04303	-0.008392	-0.00412	-0.96985	-0.000458	-0.057526	0.38849	-0.091858	0.0354	-0.081329	0.16052	-0.029449	0.004272	0.000305	0.092773	-0.002289	-0.053864	0.080109	-0.003662	-0.005951
8.744	0.006714	0.20752	0.029755	-0.00061	-0.002136	-0.014954	0.022736	0.005341	-0.023041	-0.077667	0.010529	-0.012207	-0.021973	0.30121	0.00061	0.13382	-0.003204	-0.062103	0.35996	-0.16678	0.043793	-0.061188	0.12451	-0.028076	-0.005341	0.014801	0.06134	-0.003357	-0.29022	0.04425	-0.00885	-0.001373
8.745	-0.000305	0.25604	0.090332	-0.003052	0.018311	-0.011139	-0.001678	0.014801	-0.024567	-0.070801	0.018158	-0.00473	0.018463	0.29816	0.007019	0.094757	-0.006561	-0.027008	0.28153	-0.15015	0.045166	-0.069122	0.083618	-0.006409	-0.00946	0.00885	0.046844	-0.000153	-0.69534	-0.021362	-0.002899	-0.00946
8.746	0.001526	0.27634	-0.031433	-0.006104	0.01709	0.005341	-0.005951	0.00473	-0.02655	-0.18036	0.007019	0.077667	0.050812	0.068665	0.010071	0.19119	-0.001221	-0.015564	-0.13184	-0.043488	0.04364	-0.057373	0.069427	-0.02655	0.011902	0.007477	0.056458	-0.001984	-0.11185	0.004272	-0.001526	0.000305
8.747	0.011292	0.27222	-0.11627	0.010681	0.018768	0.011139	-0.015564	0.004272	-0.008698	-0.16052	0.017548	0.050049	0.02594	0.085754	0.013275	0.056305	-0.004578	-0.09079	-0.1532	0.030518	0.045471	-0.063324	-0.009613	-0.036469	0.007935	0.002594	0.085449	-0.003204	0.21896	0.096588	-0.005951	-0.005798
8.748	0.007782	0.31723	-0.079956	0.00473	0.027313	0.011292	0.007019	-0.001221	0.011902	0.039368	0.007782	-0.1445	0.036621	0.065308	0.014038	0.32257	-0.003967	-0.056915	0.040283	0.1297	0.04715	-0.06134	-0.06546	-0.001984	0.015411	0.000458	0.14923	-0.008087	0.21774	0.11292	0.000153	-0.005341
8.749	0.006256	0.35217	-0.067596	0.005646	0.003662	-0.009155	0.028076	-0.002747	0.029602	0.27176	0.008698	0.062866	0.072937	0.063477	0.021362	0.06958	0.000153	-0.040741	-0.038605	0.14389	0.030212	-0.066376	-0.089874	-0.031891	0.033417	-0.003967	0.18707	-0.006866	0.25986	0.066681	-0.001373	-0.009003
8.75	-0.001526	0.34882	-0.22964	0.015259	-0.018921	0.000305	-0.031586	0.002441	0.036621	0.5043	0.002899	0.018311	0.069122	0.055237	0.040741	-0.30197	0.036163	-0.079498	-0.055695	0.12314	0.027466	-0.078888	-0.0737	-0.087128	0.012665	0.000153	0.10513	-0.000305	0.045776	-0.04364	-0.000458	-0.013733
8.751	-0.006409	0.31326	0.11215	0.009613	-0.054626	0.011139	-0.048218	-0.001068	-0.031738	0.6134	0.00412	0.01236	0.006104	0.098877	0.039063	0.25696	0.06424	-0.091705	-0.091858	0.034027	0.022736	-0.066223	-0.036469	-0.061646	0.029144	0.001068	-0.04303	-0.003662	-0.080414	-0.019836	-0.00061	-0.015717
8.752	-0.005341	0.29999	0.13031	0.016479	-0.088806	0.019379	-0.008698	0.00824	-0.007935	0.09964	0.005493	0.12482	-0.088348	0.020905	0.029602	-0.28198	0.112	-0.10788	0.16083	-0.016785	0.018921	-0.088196	-0.080872	-0.085602	0.022888	-0.00885	-0.083466	-0.006104	-0.11902	-0.044098	-0.005035	-0.012207
8.753	-0.019073	0.31509	0.29648	0.00824	-0.095978	0.002136	0.006866	0.005951	0.001373	-0.39612	0.011444	-0.094757	-0.1239	-0.12024	-0.028381	0.084381	0.08194	-0.14008	0.014496	-0.087128	0.003204	-0.071259	0.011292	-0.11215	0.011292	-0.016174	-0.057526	0.00473	-0.15671	-0.07782	0	-0.016479
8.754	-0.006409	0.31952	0.20142	0.007629	-0.055542	0.003357	-0.098419	0.005951	0.044861	-0.5159	0.008392	-0.06485	-0.068207	-0.017395	-0.043945	0.14557	0.055695	-0.17029	-0.081024	-0.16815	0.007935	-0.064392	0.043182	-0.12238	0.010376	-0.008545	0.088043	-0.00412	-0.12222	-0.11185	-0.004578	-0.024872
8.755	-0.003052	0.37903	0.12482	-0.000916	-0.077209	-0.073547	-0.087738	0.006561	0.074005	-0.60837	0.002136	0.097961	0.11475	0.099487	-0.006561	0	0.011749	-0.16205	0.04425	-0.16968	0.00473	-0.068359	0.063171	-0.077209	-0.00061	-0.002441	0.2301	-0.007935	-0.13031	-0.13733	-0.002289	-0.021057
